<svg id="Layer_1" enable-background="new 0 0 3873 3873" height="512" viewBox="0 0 3873 3873" width="512" xmlns="http://www.w3.org/2000/svg" xmlns:xlink="http://www.w3.org/1999/xlink"><linearGradient id="lg1"><stop offset="0" stop-color="#ed4893"/><stop offset="1" stop-color="#a41e5c"/></linearGradient><linearGradient id="SVGID_1_" gradientTransform="matrix(1 0 0 -1 0 3380.983)" gradientUnits="userSpaceOnUse" x1="567.185" x2="3305.798" xlink:href="#lg1" y1="2813.798" y2="75.185"/><linearGradient id="SVGID_2_" gradientTransform="matrix(1 0 0 -1 0 3380.983)" gradientUnits="userSpaceOnUse" x1="2644.964" x2="2644.964" xlink:href="#lg1" y1="-59.045" y2="-59.045"/><g clip-rule="evenodd" fill-rule="evenodd"><circle cx="1936.5" cy="1936.5" fill="url(#SVGID_1_)" r="1936.5"/><path d="" fill="url(#SVGID_2_)"/><g fill="#fff"><path d="m2012.3 840.7v297.8h297.8z"/><path d="m644.2 796.8v2288.4h897.1c-40.3-39.4-65.3-94.5-65.3-155.2v-193.6h-532.2c-17.2 0-31.1-13.9-31.1-31 0-17.2 13.9-31 31-31h532.1v-312.9h-532.1c-17.2 0-31.1-13.9-31.1-31s13.9-31 31-31h532.1v-114.7c0-88.1 52.7-164.1 128.1-198.1h-660.3c-17.2 0-31.1-13.9-31.1-31 0-17.2 13.9-31.1 31-31.1h1042v-25.1c0-97.1 96.6-176.1 215.4-176.1h152.9v-522.5h-372.7c-17.2 0-31.1-13.9-31.1-31v-372.8h-1305.7zm463.9 370h638.9c17.2 0 31 13.9 31 31.1s-13.9 31-31 31h-638.9c-17.2 0-31.1-13.9-31.1-31 .1-17.2 14-31.1 31.1-31.1zm-164.3 382.6h1110.6c17.2 0 31 13.9 31 31 0 17.2-13.9 31-31 31h-1110.6c-17.2 0-31.1-13.9-31.1-31s13.9-31 31.1-31z"/><path d="m2521.8 2362.8v194.6c0 17.2-13.9 31.1-31 31h-211.4c-17.2 0-31-13.9-31-31v-194.6h-710.2v342.7 224.7c0 85.6 69.5 155.2 155.1 155.2h1383.7c85.6 0 155.1-69.6 155.1-155.2v-567.3h-710.3zm-663.3 417.6h1053c17.2 0 31 13.9 31 31.1s-13.9 31-31 31h-1052.9c-17.2 0-31.1-13.9-31.1-31 0-17.3 13.9-31.1 31-31.1z"/><path d="m2459.7 2252.9h-149.4v273.4h149.4v-193.8-.8-.7z"/><path d="m3076.9 2029.5h-861.2-.1-.1-198.7-.1-.1-323.5c-85.6 0-155.1 69.6-155.1 155.2v116h710.2v-78.8c0-17.2 13.9-31 31-31h211.4c17.2 0 31 13.9 31 31v78.8h710.3v-116c.2-85.7-69.4-155.2-155-155.2z"/><path d="m2498.2 1829.3c48.1 0 87.2 39.9 87.2 89v49h136.7v-68.1c0-61.8-70.2-114-153.3-114h-183.8-.2-.2-183.6c-83 0-153.3 52.2-153.3 114v68.1h136.8v-49c0-49.1 39.1-89 87.2-89z"/></g></g></svg>