<svg viewBox="0 0 512 512" xmlns="http://www.w3.org/2000/svg" xmlns:xlink="http://www.w3.org/1999/xlink"><linearGradient id="a" gradientTransform="matrix(1 0 0 -1 0 -12310)" gradientUnits="userSpaceOnUse" x1="0" x2="512" y1="-12566" y2="-12566"><stop offset="0" stop-color="#00f38d"/><stop offset="1" stop-color="#009eff"/></linearGradient><path d="m512 256c0 141.386719-114.613281 256-256 256s-256-114.613281-256-256 114.613281-256 256-256 256 114.613281 256 256zm0 0" fill="url(#a)"/><path d="m310.332031 265.011719c18.363281-15.492188 30.054688-38.652344 30.054688-64.5 0-14.617188-3.796875-28.847657-10.863281-41.394531l37.070312-13.660157v80.726563h30v-113.476563l-140.179688-51.6875-141.007812 51.527344v21.753906l67.199219 24.570313c-7.152344 12.601562-10.992188 26.902344-10.992188 41.636718 0 25.851563 11.691407 49.007813 30.054688 64.503907-62.351563 22.355469-107.074219 82.042969-107.074219 151.988281h30c0-54.347656 33.164062-101.097656 80.320312-121.070312l36.085938 51.554687v69.515625h30v-69.515625l36.089844-51.554687c47.152344 19.972656 80.320312 66.722656 80.320312 121.070312h30c-.003906-69.945312-44.726562-129.632812-107.078125-151.988281zm-53.964843-172.03125 82.910156 30.570312-82.640625 30.449219-83.605469-30.570312zm-44.96875 76.421875 45.277343 16.554687 44.128907-16.261719c6.207031 9.023438 9.582031 19.746094 9.582031 30.816407 0 29.988281-24.398438 54.386719-54.386719 54.386719s-54.386719-24.398438-54.386719-54.386719c0-11.210938 3.441407-22.03125 9.785157-31.109375zm44.601562 147.195312-20.574219-29.390625c6.707031-1.058593 13.578125-1.617187 20.574219-1.617187s13.867188.558594 20.574219 1.617187zm0 0" fill="#fff"/></svg>